<svg xmlns="http://www.w3.org/2000/svg" viewBox="0 0 410 404" fill="none"><path d="M399.641 59.5246L215.643 388.545c-3.79 6.779-13.563 6.819-17.408.07L10.5239 59.5563c-4.183-7.34 2.13-16.272 10.471-14.7825l184.231 32.9265c1.175.21 2.378.207 3.55-.01l180.27-32.8946c8.309-1.5169 14.642 7.3471 10.594 14.6749z" fill="url(#a)"/><path d="M292.965 1.5744l-136.182 26.685a4.39 4.39 0 0 0-3.541 4.073l-8.385 141.566c-.121 2.04 1.751 3.638 3.749 3.198l37.926-8.755c2.176-.502 4.148 1.418 3.704 3.61l-11.261 55.155c-.461 2.279 1.671 4.226 3.91 3.578l23.43-7.117c2.242-.65 4.376 1.302 3.91 3.583l-17.912 86.671c-.682 3.323 3.738 5.142 5.59 2.295L211 191.838c1.197-1.834-.387-4.213-2.567-3.792l-39.036 7.539c-1.964.379-3.65-1.444-3.087-3.371L191.86 90.0185c.563-1.928-1.137-3.749-3.091-3.366l-39.937 7.7464c-1.97.387-3.665-1.452-3.087-3.371L185.39 7.4884c.578-1.929-1.117-3.762-3.091-3.366z" fill="url(#b)"/><defs><linearGradient id="a" x1="6.0001" y1="32.9999" x2="235" y2="344" gradientUnits="userSpaceOnUse"><stop stop-color="#41D1FF"/><stop offset="1" stop-color="#BD34FE"/></linearGradient><linearGradient id="b" x1="194.651" y1="8.81818" x2="236.076" y2="292.989" gradientUnits="userSpaceOnUse"><stop stop-color="#FFEA83"/><stop offset=".0833" stop-color="#FFDD35"/><stop offset="1" stop-color="#FFA800"/></linearGradient></defs></svg>
